G04*
G04 #@! TF.GenerationSoftware,Altium Limited,Altium Designer,22.1.2 (22)*
G04*
G04 Layer_Color=128*
%FSLAX43Y43*%
%MOMM*%
G71*
G04*
G04 #@! TF.SameCoordinates,6AEDFA60-476F-4491-B942-E61EABD09AEE*
G04*
G04*
G04 #@! TF.FilePolarity,Positive*
G04*
G01*
G75*
%ADD48C,0.051*%
D48*
X170240Y80772D02*
X171390D01*
X170815Y80197D02*
Y81347D01*
X170240Y83312D02*
X171390D01*
X170815Y82737D02*
Y83887D01*
X173288Y80772D02*
X174438D01*
X173863Y80197D02*
Y81347D01*
X173288Y83312D02*
X174438D01*
X173863Y82737D02*
Y83887D01*
X148954Y82931D02*
X150004D01*
X149479Y82406D02*
Y83456D01*
X151454Y82931D02*
X152504D01*
X151979Y82406D02*
Y83456D01*
X171839Y94234D02*
X172839D01*
X172339Y93734D02*
Y94734D01*
X171839Y91734D02*
X172839D01*
X172339Y91234D02*
Y92234D01*
X171839Y89234D02*
X172839D01*
X172339Y88734D02*
Y89734D01*
X171839Y108101D02*
X172839D01*
X172339Y107601D02*
Y108601D01*
X171839Y105601D02*
X172839D01*
X172339Y105101D02*
Y106101D01*
X171839Y103100D02*
X172839D01*
X172339Y102600D02*
Y103600D01*
X171839Y121967D02*
X172839D01*
X172339Y121467D02*
Y122467D01*
X171839Y119467D02*
X172839D01*
X172339Y118967D02*
Y119967D01*
X171839Y116967D02*
X172839D01*
X172339Y116467D02*
Y117467D01*
X159177Y81870D02*
X159977D01*
X159577Y81470D02*
Y82270D01*
X161677Y81870D02*
X162477D01*
X162077Y81470D02*
Y82270D01*
X164177Y81870D02*
X164977D01*
X164577Y81470D02*
Y82270D01*
X159177Y87270D02*
X159977D01*
X159577Y86870D02*
Y87670D01*
X161677Y87270D02*
X162477D01*
X162077Y86870D02*
Y87670D01*
X164177Y87270D02*
X164977D01*
X164577Y86870D02*
Y87670D01*
X143316Y101854D02*
X144466D01*
X143891Y101279D02*
Y102429D01*
X143316Y104394D02*
X144466D01*
X143891Y103819D02*
Y104969D01*
X166093Y92583D02*
X166393D01*
X166243Y92433D02*
Y92733D01*
X151615Y104394D02*
X151915D01*
X151765Y104244D02*
Y104544D01*
X149964Y110871D02*
X150264D01*
X150114Y110721D02*
Y111021D01*
X168481Y103353D02*
X168781D01*
X168631Y103203D02*
Y103503D01*
X167566Y116662D02*
X167866D01*
X167716Y116512D02*
Y116812D01*
X161150Y91221D02*
X161450D01*
X161300Y91071D02*
Y91371D01*
M02*
