G04*
G04 #@! TF.GenerationSoftware,Altium Limited,Altium Designer,22.1.2 (22)*
G04*
G04 Layer_Color=65535*
%FSLAX43Y43*%
%MOMM*%
G71*
G04*
G04 #@! TF.SameCoordinates,789559D7-4389-4A6F-8FAE-C72B44BD11BC*
G04*
G04*
G04 #@! TF.FilePolarity,Positive*
G04*
G01*
G75*
%ADD10C,0.200*%
%ADD11C,0.100*%
%ADD12C,0.127*%
%ADD13C,0.178*%
D10*
X146389Y82931D02*
G03*
X146389Y82931I-100J0D01*
G01*
X172439Y85984D02*
G03*
X172439Y85984I-100J0D01*
G01*
Y99851D02*
G03*
X172439Y99851I-100J0D01*
G01*
Y113717D02*
G03*
X172439Y113717I-100J0D01*
G01*
X157881Y91436D02*
G03*
X157881Y91436I-100J0D01*
G01*
X159077Y79870D02*
G03*
X159077Y79670I0J-100D01*
G01*
D02*
G03*
X159077Y79870I0J100D01*
G01*
X144501Y109697D02*
G03*
X144701Y109697I100J0D01*
G01*
D02*
G03*
X144501Y109697I-100J0D01*
G01*
X144701Y122801D02*
G03*
X144501Y122801I-100J0D01*
G01*
D02*
G03*
X144701Y122801I100J0D01*
G01*
X169480Y79562D02*
Y80772D01*
Y79562D02*
X172150D01*
Y84522D01*
X170815D02*
X172150D01*
X172528Y79562D02*
Y80772D01*
Y79562D02*
X175198D01*
Y84522D01*
X173863D02*
X175198D01*
X164271Y94615D02*
X165421D01*
X148620Y119231D02*
Y125981D01*
X166620D01*
Y119231D02*
Y125981D01*
Y100481D02*
Y101231D01*
X164120Y100481D02*
X166620D01*
X148620D02*
X151120D01*
X148620D02*
Y101231D01*
X145226Y111997D02*
Y112397D01*
X143976Y111997D02*
Y112397D01*
X142556Y100644D02*
Y101854D01*
Y100644D02*
X145226D01*
Y105604D01*
X143891D02*
X145226D01*
X143976Y120101D02*
Y120501D01*
X145226Y120101D02*
Y120501D01*
X160588Y94615D02*
X161738D01*
D11*
X147520Y118491D02*
G03*
X147620Y118491I50J0D01*
G01*
D02*
G03*
X147520Y118491I-50J0D01*
G01*
X157827Y88820D02*
X166327D01*
Y80320D02*
Y88820D01*
X157827Y80320D02*
X166327D01*
X157827D02*
Y88820D01*
X157127Y87070D02*
X157827D01*
X157127Y82070D02*
Y87070D01*
Y82070D02*
X157827D01*
X166327Y87070D02*
X167027D01*
Y82070D02*
Y87070D01*
X166327Y82070D02*
X167027D01*
D12*
X147029Y79531D02*
X154429D01*
Y85281D01*
X147029D02*
X154429D01*
X147029Y79531D02*
Y85281D01*
X175739Y86784D02*
Y96684D01*
X169989Y86784D02*
X175739D01*
X169989D02*
Y96684D01*
X175739D01*
Y100650D02*
Y110550D01*
X169989Y100650D02*
X175739D01*
X169989D02*
Y110550D01*
X175739D01*
Y114517D02*
Y124417D01*
X169989Y114517D02*
X175739D01*
X169989D02*
Y124417D01*
X175739D01*
X151029Y90473D02*
X154533D01*
X151029D02*
Y96979D01*
X154533D01*
Y90473D02*
Y96979D01*
X170730Y85344D02*
X170561D01*
X170646D01*
Y84921D01*
X170561Y84836D01*
X170476D01*
X170392Y84921D01*
X171238Y85344D02*
X171069Y85259D01*
X170900Y85090D01*
Y84921D01*
X170984Y84836D01*
X171154D01*
X171238Y84921D01*
Y85005D01*
X171154Y85090D01*
X170900D01*
X173651Y85344D02*
X173482D01*
X173567D01*
Y84921D01*
X173482Y84836D01*
X173397D01*
X173313Y84921D01*
X173821Y85344D02*
X174159D01*
Y85259D01*
X173821Y84921D01*
Y84836D01*
D13*
X176200Y122504D02*
Y121827D01*
Y108534D02*
Y107857D01*
Y94691D02*
Y94014D01*
X176141Y88824D02*
Y89501D01*
X175802Y89162D02*
X176479D01*
X176268Y102540D02*
Y103217D01*
X175929Y102878D02*
X176606D01*
X176141Y116256D02*
Y116933D01*
X175802Y116594D02*
X176479D01*
X146481Y104851D02*
X145466D01*
Y104343D01*
X145635Y104174D01*
X145804D01*
X145974Y104343D01*
Y104851D01*
Y104343D01*
X146143Y104174D01*
X146312D01*
X146481Y104343D01*
Y104851D01*
X145466Y103666D02*
Y103328D01*
X145635Y103158D01*
X145974D01*
X146143Y103328D01*
Y103666D01*
X145974Y103836D01*
X145635D01*
X145466Y103666D01*
Y102651D02*
Y102312D01*
X145635Y102143D01*
X145974D01*
X146143Y102312D01*
Y102651D01*
X145974Y102820D01*
X145635D01*
X145466Y102651D01*
X146312Y101635D02*
X146143D01*
Y101804D01*
Y101466D01*
Y101635D01*
X145635D01*
X145466Y101466D01*
X175819Y83769D02*
Y83092D01*
X176157Y83431D02*
X175480D01*
X175819Y80722D02*
Y80045D01*
X169240Y79680D02*
X168225D01*
Y80188D01*
X168394Y80357D01*
X168732D01*
X168902Y80188D01*
Y79680D01*
Y80018D02*
X169240Y80357D01*
X168563Y80695D02*
X169240Y81373D01*
X168902Y81034D01*
X168563Y81373D01*
X169240Y80695D01*
X168225Y82727D02*
Y83404D01*
Y83065D01*
X169240D01*
X168563Y83742D02*
X169240Y84420D01*
X168902Y84081D01*
X168563Y84420D01*
X169240Y83742D01*
X155524Y80086D02*
X154847D01*
X146423Y80061D02*
Y80738D01*
X146084Y80399D02*
X146761D01*
X168733Y116764D02*
Y117441D01*
Y117102D01*
X169748D01*
X168733Y118457D02*
Y117779D01*
X169748D01*
Y118457D01*
X169240Y117779D02*
Y118118D01*
X169748Y118795D02*
X168733D01*
X169071Y119134D01*
X168733Y119472D01*
X169748D01*
Y119811D02*
X168733D01*
Y120319D01*
X168902Y120488D01*
X169240D01*
X169410Y120319D01*
Y119811D01*
X168902Y103471D02*
X168733Y103302D01*
Y102963D01*
X168902Y102794D01*
X169071D01*
X169240Y102963D01*
Y103302D01*
X169410Y103471D01*
X169579D01*
X169748Y103302D01*
Y102963D01*
X169579Y102794D01*
X169748Y103809D02*
X168733D01*
X169071Y104148D01*
X168733Y104487D01*
X169748D01*
X168733Y105333D02*
Y104994D01*
X168902Y104825D01*
X169579D01*
X169748Y104994D01*
Y105333D01*
X169579Y105502D01*
X168902D01*
X168733Y105333D01*
Y105841D02*
X169748D01*
X169410D01*
X168733Y106518D01*
X169240Y106010D01*
X169748Y106518D01*
X168733Y107534D02*
Y106856D01*
X169748D01*
Y107534D01*
X169240Y106856D02*
Y107195D01*
X168733Y88824D02*
X169748D01*
Y89501D01*
X168733Y89839D02*
X169748D01*
Y90347D01*
X169579Y90517D01*
X168902D01*
X168733Y90347D01*
Y89839D01*
X169748Y90855D02*
X168733D01*
Y91363D01*
X168902Y91532D01*
X169240D01*
X169410Y91363D01*
Y90855D01*
Y91194D02*
X169748Y91532D01*
X154686Y84582D02*
Y84243D01*
Y84413D01*
X155533D01*
X155702Y84243D01*
Y84074D01*
X155533Y83905D01*
X155702Y84921D02*
Y85259D01*
Y85090D01*
X154686D01*
X154855Y84921D01*
X148260Y85522D02*
Y86537D01*
X148768D01*
X148937Y86368D01*
Y86030D01*
X148768Y85860D01*
X148260D01*
X149445Y85522D02*
X149783D01*
X149953Y85691D01*
Y86030D01*
X149783Y86199D01*
X149445D01*
X149275Y86030D01*
Y85691D01*
X149445Y85522D01*
X150291Y86199D02*
Y85691D01*
X150460Y85522D01*
X150630Y85691D01*
X150799Y85522D01*
X150968Y85691D01*
Y86199D01*
X151815Y85522D02*
X151476D01*
X151307Y85691D01*
Y86030D01*
X151476Y86199D01*
X151815D01*
X151984Y86030D01*
Y85860D01*
X151307D01*
X152322Y86199D02*
Y85522D01*
Y85860D01*
X152492Y86030D01*
X152661Y86199D01*
X152830D01*
X164787Y97646D02*
X164617Y97815D01*
X164279D01*
X164109Y97646D01*
Y96969D01*
X164279Y96799D01*
X164617D01*
X164787Y96969D01*
X165125Y96799D02*
X165464D01*
X165294D01*
Y97815D01*
X165125Y97646D01*
X154626Y87839D02*
X154457Y87670D01*
Y87331D01*
X154626Y87162D01*
X154796D01*
X154965Y87331D01*
Y87670D01*
X155134Y87839D01*
X155304D01*
X155473Y87670D01*
Y87331D01*
X155304Y87162D01*
X155473Y88177D02*
Y88516D01*
Y88347D01*
X154457D01*
X154626Y88177D01*
X146939Y95335D02*
X147786D01*
X147955Y95504D01*
Y95843D01*
X147786Y96012D01*
X146939D01*
X147955Y96351D02*
Y96689D01*
Y96520D01*
X146939D01*
X147108Y96351D01*
X143104Y124130D02*
Y125145D01*
X143611D01*
X143781Y124976D01*
Y124638D01*
X143611Y124468D01*
X143104D01*
X143442D02*
X143781Y124130D01*
X144796D02*
X144119D01*
X144796Y124807D01*
Y124976D01*
X144627Y125145D01*
X144289D01*
X144119Y124976D01*
X143104Y115672D02*
Y116687D01*
X143611D01*
X143781Y116518D01*
Y116179D01*
X143611Y116010D01*
X143104D01*
X143442D02*
X143781Y115672D01*
X144119D02*
X144458D01*
X144289D01*
Y116687D01*
X144119Y116518D01*
X170646Y98171D02*
X170307D01*
X170476D01*
Y97324D01*
X170307Y97155D01*
X170138D01*
X169969Y97324D01*
X171661Y98171D02*
X170984D01*
Y97663D01*
X171323Y97832D01*
X171492D01*
X171661Y97663D01*
Y97324D01*
X171492Y97155D01*
X171154D01*
X170984Y97324D01*
X170646Y111950D02*
X170307D01*
X170476D01*
Y111104D01*
X170307Y110935D01*
X170138D01*
X169969Y111104D01*
X171492Y110935D02*
Y111950D01*
X170984Y111442D01*
X171661D01*
X170646Y125730D02*
X170307D01*
X170476D01*
Y124883D01*
X170307Y124714D01*
X170138D01*
X169969Y124883D01*
X170984Y125561D02*
X171154Y125730D01*
X171492D01*
X171661Y125561D01*
Y125391D01*
X171492Y125222D01*
X171323D01*
X171492D01*
X171661Y125053D01*
Y124883D01*
X171492Y124714D01*
X171154D01*
X170984Y124883D01*
X143146Y107569D02*
X142807D01*
X142976D01*
Y106722D01*
X142807Y106553D01*
X142638D01*
X142469Y106722D01*
X144161Y106553D02*
X143484D01*
X144161Y107230D01*
Y107399D01*
X143992Y107569D01*
X143654D01*
X143484Y107399D01*
X147066Y122852D02*
Y123190D01*
Y123021D01*
X148082D01*
Y122852D01*
Y123190D01*
X147235Y124375D02*
X147066Y124206D01*
Y123867D01*
X147235Y123698D01*
X147913D01*
X148082Y123867D01*
Y124206D01*
X147913Y124375D01*
X148082Y124714D02*
Y125052D01*
Y124883D01*
X147066D01*
X147235Y124714D01*
X161104Y97646D02*
X160934Y97815D01*
X160596D01*
X160426Y97646D01*
Y96969D01*
X160596Y96799D01*
X160934D01*
X161104Y96969D01*
X162119Y96799D02*
X161442D01*
X162119Y97477D01*
Y97646D01*
X161950Y97815D01*
X161611D01*
X161442Y97646D01*
M02*
