G04*
G04 #@! TF.GenerationSoftware,Altium Limited,Altium Designer,22.1.2 (22)*
G04*
G04 Layer_Color=16711935*
%FSLAX43Y43*%
%MOMM*%
G71*
G04*
G04 #@! TF.SameCoordinates,789559D7-4389-4A6F-8FAE-C72B44BD11BC*
G04*
G04*
G04 #@! TF.FilePolarity,Positive*
G04*
G01*
G75*
%ADD45C,0.203*%
%ADD46C,0.254*%
D45*
X176811Y125159D02*
G03*
X175260Y127000I-1869J0D01*
G01*
X176784Y124841D02*
G03*
X176811Y125159I-1842J317D01*
G01*
X175133Y78359D02*
G03*
X176784Y79756I127J1524D01*
G01*
X142367Y127000D02*
G03*
X141224Y125476I191J-1334D01*
G01*
X145415Y79756D02*
G03*
X146939Y78359I1461J64D01*
G01*
X176811Y125159D02*
G03*
X175260Y127000I-1869J0D01*
G01*
X176784Y124841D02*
G03*
X176811Y125159I-1842J317D01*
G01*
X175133Y78359D02*
G03*
X176784Y79756I127J1524D01*
G01*
X142367Y127000D02*
G03*
X141224Y125476I191J-1334D01*
G01*
X145415Y79756D02*
G03*
X146939Y78359I1461J64D01*
G01*
X176811Y125159D02*
G03*
X175260Y127000I-1869J0D01*
G01*
X176784Y124841D02*
G03*
X176811Y125159I-1842J317D01*
G01*
X175133Y78359D02*
G03*
X176784Y79756I127J1524D01*
G01*
X142367Y127000D02*
G03*
X141224Y125476I191J-1334D01*
G01*
X145415Y79756D02*
G03*
X146939Y78359I1461J64D01*
G01*
X169037Y127000D02*
X175260D01*
X167132Y125095D02*
X169037Y127000D01*
X167132Y120015D02*
Y125095D01*
X176784Y79756D02*
Y124841D01*
X166497Y119380D02*
X167132Y120015D01*
X147955D02*
X148590Y119380D01*
X166497D01*
X146304Y127000D02*
X147955Y125349D01*
X142367Y127000D02*
X146304D01*
X147955Y120015D02*
Y125349D01*
X141224Y98933D02*
Y125476D01*
X146939Y78359D02*
X175133D01*
X141224Y98933D02*
X145415Y94742D01*
Y79756D02*
Y94742D01*
X169037Y127000D02*
X175260D01*
X167132Y125095D02*
X169037Y127000D01*
X167132Y120015D02*
Y125095D01*
X176784Y79756D02*
Y124841D01*
X166497Y119380D02*
X167132Y120015D01*
X147955D02*
X148590Y119380D01*
X166497D01*
X146304Y127000D02*
X147955Y125349D01*
X142367Y127000D02*
X146304D01*
X147955Y120015D02*
Y125349D01*
X141224Y98933D02*
Y125476D01*
X146939Y78359D02*
X175133D01*
X141224Y98933D02*
X145415Y94742D01*
Y79756D02*
Y94742D01*
X169037Y127000D02*
X175260D01*
X167132Y125095D02*
X169037Y127000D01*
X167132Y120015D02*
Y125095D01*
X176784Y79756D02*
Y124841D01*
X166497Y119380D02*
X167132Y120015D01*
X147955D02*
X148590Y119380D01*
X166497D01*
X146304Y127000D02*
X147955Y125349D01*
X142367Y127000D02*
X146304D01*
X147955Y120015D02*
Y125349D01*
X141224Y98933D02*
Y125476D01*
X146939Y78359D02*
X175133D01*
X141224Y98933D02*
X145415Y94742D01*
Y79756D02*
Y94742D01*
D46*
Y79756D02*
G03*
X146939Y78359I1461J64D01*
G01*
X175133Y78359D02*
G03*
X176784Y79756I127J1524D01*
G01*
X176784Y124841D02*
G03*
X175260Y127000I-1842J317D01*
G01*
X142367D02*
G03*
X141224Y125476I191J-1334D01*
G01*
X142367Y127000D02*
X146304D01*
X169037D01*
X175260D01*
X145415Y79756D02*
Y94742D01*
X176784Y79756D02*
Y124841D01*
X146939Y78359D02*
X175133D01*
X141224Y98933D02*
X145415Y94742D01*
X141224Y98933D02*
Y125476D01*
M02*
