G04*
G04 #@! TF.GenerationSoftware,Altium Limited,Altium Designer,22.1.2 (22)*
G04*
G04 Layer_Color=255*
%FSLAX43Y43*%
%MOMM*%
G71*
G04*
G04 #@! TF.SameCoordinates,789559D7-4389-4A6F-8FAE-C72B44BD11BC*
G04*
G04*
G04 #@! TF.FilePolarity,Positive*
G04*
G01*
G75*
%ADD14R,1.490X0.960*%
%ADD15R,1.500X0.900*%
%ADD16R,0.900X1.500*%
%ADD17R,0.900X0.900*%
G04:AMPARAMS|DCode=18|XSize=1.31mm|YSize=0.93mm|CornerRadius=0.07mm|HoleSize=0mm|Usage=FLASHONLY|Rotation=180.000|XOffset=0mm|YOffset=0mm|HoleType=Round|Shape=RoundedRectangle|*
%AMROUNDEDRECTD18*
21,1,1.310,0.791,0,0,180.0*
21,1,1.171,0.930,0,0,180.0*
1,1,0.140,-0.585,0.395*
1,1,0.140,0.585,0.395*
1,1,0.140,0.585,-0.395*
1,1,0.140,-0.585,-0.395*
%
%ADD18ROUNDEDRECTD18*%
G04:AMPARAMS|DCode=19|XSize=1.31mm|YSize=3.24mm|CornerRadius=0.098mm|HoleSize=0mm|Usage=FLASHONLY|Rotation=180.000|XOffset=0mm|YOffset=0mm|HoleType=Round|Shape=RoundedRectangle|*
%AMROUNDEDRECTD19*
21,1,1.310,3.044,0,0,180.0*
21,1,1.114,3.240,0,0,180.0*
1,1,0.197,-0.557,1.522*
1,1,0.197,0.557,1.522*
1,1,0.197,0.557,-1.522*
1,1,0.197,-0.557,-1.522*
%
%ADD19ROUNDEDRECTD19*%
%ADD20R,1.150X1.150*%
%ADD37R,1.725X1.725*%
%ADD38C,1.725*%
%ADD39R,1.575X1.575*%
%ADD40C,1.575*%
%ADD41C,1.508*%
%ADD42R,1.508X1.508*%
%ADD43C,1.300*%
D14*
X164846Y93775D02*
D03*
Y95455D02*
D03*
X161163Y93775D02*
D03*
Y95455D02*
D03*
D15*
X148870Y118491D02*
D03*
Y117221D02*
D03*
Y115951D02*
D03*
Y114681D02*
D03*
Y113411D02*
D03*
Y112141D02*
D03*
Y110871D02*
D03*
Y109601D02*
D03*
Y108331D02*
D03*
Y107061D02*
D03*
Y105791D02*
D03*
Y104521D02*
D03*
Y103251D02*
D03*
Y101981D02*
D03*
X166370D02*
D03*
Y103251D02*
D03*
Y104521D02*
D03*
Y105791D02*
D03*
Y107061D02*
D03*
Y108331D02*
D03*
Y109601D02*
D03*
Y110871D02*
D03*
Y112141D02*
D03*
Y113411D02*
D03*
Y114681D02*
D03*
Y115951D02*
D03*
Y117221D02*
D03*
Y118491D02*
D03*
D16*
X151905Y100731D02*
D03*
X153175D02*
D03*
X154445D02*
D03*
X155715D02*
D03*
X156985D02*
D03*
X158255D02*
D03*
X159525D02*
D03*
X160795D02*
D03*
X162065D02*
D03*
X163335D02*
D03*
D17*
X154720Y112171D02*
D03*
Y110771D02*
D03*
Y109371D02*
D03*
X156120D02*
D03*
X157520D02*
D03*
Y110771D02*
D03*
Y112171D02*
D03*
X156120D02*
D03*
Y110771D02*
D03*
D18*
X156126Y91436D02*
D03*
Y93726D02*
D03*
Y96016D02*
D03*
D19*
X149436Y93726D02*
D03*
D20*
X144601Y111022D02*
D03*
Y113372D02*
D03*
Y121476D02*
D03*
Y119126D02*
D03*
D37*
X170815Y80772D02*
D03*
X173863D02*
D03*
X143891Y101854D02*
D03*
D38*
X170815Y83312D02*
D03*
X173863D02*
D03*
X143891Y104394D02*
D03*
D39*
X149479Y82931D02*
D03*
D40*
X151979D02*
D03*
D41*
X172339Y94234D02*
D03*
Y91734D02*
D03*
Y108101D02*
D03*
Y105601D02*
D03*
Y121967D02*
D03*
Y119467D02*
D03*
D42*
Y89234D02*
D03*
Y103100D02*
D03*
Y116967D02*
D03*
D43*
X159577Y81870D02*
D03*
X162077D02*
D03*
X164577D02*
D03*
X159577Y87270D02*
D03*
X162077D02*
D03*
X164577D02*
D03*
M02*
