G04*
G04 #@! TF.GenerationSoftware,Altium Limited,Altium Designer,22.1.2 (22)*
G04*
G04 Layer_Color=8388736*
%FSLAX43Y43*%
%MOMM*%
G71*
G04*
G04 #@! TF.SameCoordinates,789559D7-4389-4A6F-8FAE-C72B44BD11BC*
G04*
G04*
G04 #@! TF.FilePolarity,Negative*
G04*
G01*
G75*
%ADD21R,1.640X1.110*%
%ADD22R,1.650X1.050*%
%ADD23R,1.050X1.650*%
%ADD24R,1.050X1.050*%
G04:AMPARAMS|DCode=25|XSize=1.46mm|YSize=1.08mm|CornerRadius=0.145mm|HoleSize=0mm|Usage=FLASHONLY|Rotation=180.000|XOffset=0mm|YOffset=0mm|HoleType=Round|Shape=RoundedRectangle|*
%AMROUNDEDRECTD25*
21,1,1.460,0.791,0,0,180.0*
21,1,1.171,1.080,0,0,180.0*
1,1,0.289,-0.585,0.395*
1,1,0.289,0.585,0.395*
1,1,0.289,0.585,-0.395*
1,1,0.289,-0.585,-0.395*
%
%ADD25ROUNDEDRECTD25*%
G04:AMPARAMS|DCode=26|XSize=1.46mm|YSize=3.39mm|CornerRadius=0.173mm|HoleSize=0mm|Usage=FLASHONLY|Rotation=180.000|XOffset=0mm|YOffset=0mm|HoleType=Round|Shape=RoundedRectangle|*
%AMROUNDEDRECTD26*
21,1,1.460,3.044,0,0,180.0*
21,1,1.114,3.390,0,0,180.0*
1,1,0.347,-0.557,1.522*
1,1,0.347,0.557,1.522*
1,1,0.347,0.557,-1.522*
1,1,0.347,-0.557,-1.522*
%
%ADD26ROUNDEDRECTD26*%
%ADD27R,1.300X1.300*%
%ADD28R,1.875X1.875*%
%ADD29C,1.875*%
%ADD30R,1.725X1.725*%
%ADD31C,1.725*%
%ADD32C,1.658*%
%ADD33R,1.658X1.658*%
%ADD34C,1.450*%
%ADD35C,0.750*%
D21*
X164846Y93775D02*
D03*
Y95455D02*
D03*
X161163Y93775D02*
D03*
Y95455D02*
D03*
D22*
X148870Y118491D02*
D03*
Y117221D02*
D03*
Y115951D02*
D03*
Y114681D02*
D03*
Y113411D02*
D03*
Y112141D02*
D03*
Y110871D02*
D03*
Y109601D02*
D03*
Y108331D02*
D03*
Y107061D02*
D03*
Y105791D02*
D03*
Y104521D02*
D03*
Y103251D02*
D03*
Y101981D02*
D03*
X166370D02*
D03*
Y103251D02*
D03*
Y104521D02*
D03*
Y105791D02*
D03*
Y107061D02*
D03*
Y108331D02*
D03*
Y109601D02*
D03*
Y110871D02*
D03*
Y112141D02*
D03*
Y113411D02*
D03*
Y114681D02*
D03*
Y115951D02*
D03*
Y117221D02*
D03*
Y118491D02*
D03*
D23*
X151905Y100731D02*
D03*
X153175D02*
D03*
X154445D02*
D03*
X155715D02*
D03*
X156985D02*
D03*
X158255D02*
D03*
X159525D02*
D03*
X160795D02*
D03*
X162065D02*
D03*
X163335D02*
D03*
D24*
X154720Y112171D02*
D03*
Y110771D02*
D03*
Y109371D02*
D03*
X156120D02*
D03*
X157520D02*
D03*
Y110771D02*
D03*
Y112171D02*
D03*
X156120D02*
D03*
Y110771D02*
D03*
D25*
X156126Y91436D02*
D03*
Y93726D02*
D03*
Y96016D02*
D03*
D26*
X149436Y93726D02*
D03*
D27*
X144601Y111022D02*
D03*
Y113372D02*
D03*
Y121476D02*
D03*
Y119126D02*
D03*
D28*
X170815Y80772D02*
D03*
X173863D02*
D03*
X143891Y101854D02*
D03*
D29*
X170815Y83312D02*
D03*
X173863D02*
D03*
X143891Y104394D02*
D03*
D30*
X149479Y82931D02*
D03*
D31*
X151979D02*
D03*
D32*
X172339Y94234D02*
D03*
Y91734D02*
D03*
Y108101D02*
D03*
Y105601D02*
D03*
Y121967D02*
D03*
Y119467D02*
D03*
D33*
Y89234D02*
D03*
Y103100D02*
D03*
Y116967D02*
D03*
D34*
X159577Y81870D02*
D03*
X162077D02*
D03*
X164577D02*
D03*
X159577Y87270D02*
D03*
X162077D02*
D03*
X164577D02*
D03*
D35*
X166243Y92583D02*
D03*
X151765Y104394D02*
D03*
X150114Y110871D02*
D03*
X168631Y103353D02*
D03*
X167716Y116662D02*
D03*
X161300Y91221D02*
D03*
M02*
