G04*
G04 #@! TF.GenerationSoftware,Altium Limited,Altium Designer,22.1.2 (22)*
G04*
G04 Layer_Physical_Order=2*
G04 Layer_Color=16711680*
%FSLAX43Y43*%
%MOMM*%
G71*
G04*
G04 #@! TF.SameCoordinates,789559D7-4389-4A6F-8FAE-C72B44BD11BC*
G04*
G04*
G04 #@! TF.FilePolarity,Positive*
G04*
G01*
G75*
%ADD36C,0.381*%
%ADD37R,1.725X1.725*%
%ADD38C,1.725*%
%ADD39R,1.575X1.575*%
%ADD40C,1.575*%
%ADD41C,1.508*%
%ADD42R,1.508X1.508*%
%ADD43C,1.300*%
%ADD44C,0.600*%
D36*
X168529Y79883D02*
Y83089D01*
X168752Y83312D01*
X169418Y78994D02*
X171704D01*
X168529Y79883D02*
X169418Y78994D01*
X168752Y83312D02*
X170815D01*
X172339Y79629D02*
Y80772D01*
X171704Y78994D02*
X172339Y79629D01*
X172644Y81077D02*
Y84811D01*
X172339Y80772D02*
X172644Y81077D01*
Y84811D02*
X174244Y86411D01*
X172009Y81966D02*
Y86208D01*
X173431Y87630D01*
X170815Y80772D02*
X172009Y81966D01*
X164577Y80990D02*
Y81870D01*
Y87270D02*
Y87945D01*
X162077Y86391D02*
Y87270D01*
X166243Y92456D02*
Y92583D01*
Y92456D02*
X169291Y89408D01*
X172165D01*
X172339Y89234D01*
X159679Y104394D02*
X172339Y91734D01*
X151765Y104394D02*
X159679D01*
X155385Y105601D02*
X172339D01*
X150114Y110871D02*
X155385Y105601D01*
X173431Y87630D02*
Y98552D01*
X168631Y103353D02*
X173431Y98552D01*
X174244Y86411D02*
Y117170D01*
X173355Y118059D02*
X174244Y117170D01*
X169113Y118059D02*
X173355D01*
X167716Y116662D02*
X169113Y118059D01*
X161300Y91221D02*
X164577Y87945D01*
X149479Y82931D02*
X152019Y80391D01*
X163978D01*
X164577Y80990D01*
X151979Y82931D02*
X158617D01*
X162077Y86391D01*
X172339Y103100D02*
X173736Y104497D01*
Y115570D01*
X172339Y116967D02*
X173736Y115570D01*
D37*
X170815Y80772D02*
D03*
X173863D02*
D03*
X143891Y101854D02*
D03*
D38*
X170815Y83312D02*
D03*
X173863D02*
D03*
X143891Y104394D02*
D03*
D39*
X149479Y82931D02*
D03*
D40*
X151979D02*
D03*
D41*
X172339Y94234D02*
D03*
Y91734D02*
D03*
Y108101D02*
D03*
Y105601D02*
D03*
Y121967D02*
D03*
Y119467D02*
D03*
D42*
Y89234D02*
D03*
Y103100D02*
D03*
Y116967D02*
D03*
D43*
X159577Y81870D02*
D03*
X162077D02*
D03*
X164577D02*
D03*
X159577Y87270D02*
D03*
X162077D02*
D03*
X164577D02*
D03*
D44*
X166243Y92583D02*
D03*
X151765Y104394D02*
D03*
X150114Y110871D02*
D03*
X168631Y103353D02*
D03*
X167716Y116662D02*
D03*
X161300Y91221D02*
D03*
M02*
