G04*
G04 #@! TF.GenerationSoftware,Altium Limited,Altium Designer,22.1.2 (22)*
G04*
G04 Layer_Physical_Order=1*
G04 Layer_Color=255*
%FSLAX43Y43*%
%MOMM*%
G71*
G04*
G04 #@! TF.SameCoordinates,789559D7-4389-4A6F-8FAE-C72B44BD11BC*
G04*
G04*
G04 #@! TF.FilePolarity,Positive*
G04*
G01*
G75*
%ADD14R,1.490X0.960*%
%ADD15R,1.500X0.900*%
%ADD16R,0.900X1.500*%
%ADD17R,0.900X0.900*%
G04:AMPARAMS|DCode=18|XSize=1.31mm|YSize=0.93mm|CornerRadius=0.07mm|HoleSize=0mm|Usage=FLASHONLY|Rotation=180.000|XOffset=0mm|YOffset=0mm|HoleType=Round|Shape=RoundedRectangle|*
%AMROUNDEDRECTD18*
21,1,1.310,0.791,0,0,180.0*
21,1,1.171,0.930,0,0,180.0*
1,1,0.140,-0.585,0.395*
1,1,0.140,0.585,0.395*
1,1,0.140,0.585,-0.395*
1,1,0.140,-0.585,-0.395*
%
%ADD18ROUNDEDRECTD18*%
G04:AMPARAMS|DCode=19|XSize=1.31mm|YSize=3.24mm|CornerRadius=0.098mm|HoleSize=0mm|Usage=FLASHONLY|Rotation=180.000|XOffset=0mm|YOffset=0mm|HoleType=Round|Shape=RoundedRectangle|*
%AMROUNDEDRECTD19*
21,1,1.310,3.044,0,0,180.0*
21,1,1.114,3.240,0,0,180.0*
1,1,0.197,-0.557,1.522*
1,1,0.197,0.557,1.522*
1,1,0.197,0.557,-1.522*
1,1,0.197,-0.557,-1.522*
%
%ADD19ROUNDEDRECTD19*%
%ADD20R,1.150X1.150*%
%ADD36C,0.381*%
%ADD37R,1.725X1.725*%
%ADD38C,1.725*%
%ADD39R,1.575X1.575*%
%ADD40C,1.575*%
%ADD41C,1.508*%
%ADD42R,1.508X1.508*%
%ADD43C,1.300*%
%ADD44C,0.600*%
G36*
X175387Y126771D02*
X175693Y126654D01*
X175970Y126478D01*
X176208Y126253D01*
X176397Y125985D01*
X176530Y125685D01*
X176603Y125365D01*
X176611Y125037D01*
X176583Y124876D01*
X176583Y124858D01*
X176580Y124841D01*
Y79765D01*
X176570Y79643D01*
X176498Y79392D01*
X176378Y79160D01*
X176216Y78956D01*
X176016Y78787D01*
X175788Y78660D01*
X175539Y78581D01*
X175280Y78551D01*
X175150Y78562D01*
X175141Y78561D01*
X175133Y78563D01*
X146939Y78563D01*
X146935Y78562D01*
X146930Y78563D01*
X146806Y78557D01*
X146561Y78595D01*
X146329Y78680D01*
X146117Y78808D01*
X145934Y78976D01*
X145788Y79176D01*
X145683Y79400D01*
X145624Y79641D01*
X145619Y79760D01*
Y94742D01*
X145603Y94820D01*
X145559Y94886D01*
X145559Y94886D01*
X141428Y99017D01*
Y125476D01*
X141425Y125490D01*
X141426Y125505D01*
X141410Y125616D01*
X141422Y125841D01*
X141478Y126059D01*
X141575Y126262D01*
X141711Y126442D01*
X141878Y126593D01*
X142072Y126707D01*
X142284Y126782D01*
X142381Y126796D01*
X146508D01*
X147955Y125349D01*
Y120015D01*
X148590Y119380D01*
X162266D01*
X162315Y119263D01*
X157291Y114239D01*
X157221Y114134D01*
X157196Y114010D01*
Y112748D01*
X156943D01*
Y112495D01*
X156697D01*
Y112748D01*
X156183D01*
Y112171D01*
Y111594D01*
X156697D01*
Y111847D01*
X156943D01*
Y111594D01*
X157196D01*
Y111348D01*
X156943D01*
Y110835D01*
X158097D01*
Y111348D01*
X157844D01*
Y111594D01*
X158097D01*
Y112108D01*
X157520D01*
Y112235D01*
X158097D01*
Y112748D01*
X157844D01*
Y113876D01*
X163348Y119380D01*
X164672D01*
X164776Y119253D01*
Y107379D01*
X164801Y107255D01*
X164871Y107150D01*
X165189Y106832D01*
X165294Y106762D01*
X165417Y106737D01*
X165493D01*
Y106495D01*
X165493Y106484D01*
Y106368D01*
X165493Y106357D01*
Y105225D01*
X165493Y105214D01*
Y105098D01*
X165493Y105087D01*
Y103955D01*
X165493Y103944D01*
Y103828D01*
X165493Y103817D01*
Y102685D01*
X165493Y102674D01*
Y102558D01*
X165493Y102547D01*
Y101562D01*
X164029Y100098D01*
X163912Y100147D01*
Y101608D01*
X162769D01*
X162758Y101608D01*
X162642D01*
X162631Y101608D01*
X161499D01*
X161488Y101608D01*
X161372D01*
X161361Y101608D01*
X160229D01*
X160218Y101608D01*
X160102D01*
X160091Y101608D01*
X158959D01*
X158948Y101608D01*
X158832D01*
X158821Y101608D01*
X157689D01*
X157678Y101608D01*
X157562D01*
X157551Y101608D01*
X156419D01*
X156408Y101608D01*
X156292D01*
X156281Y101608D01*
X155149D01*
X155138Y101608D01*
X155022D01*
X155011Y101608D01*
X153879D01*
X153868Y101608D01*
X153752D01*
X153741Y101608D01*
X152609D01*
X152598Y101608D01*
X152482D01*
X152471Y101608D01*
X152229D01*
Y102192D01*
X154949Y104912D01*
X155019Y105017D01*
X155044Y105141D01*
Y108794D01*
X155297D01*
Y109047D01*
X155543D01*
Y108794D01*
X156056D01*
Y109371D01*
Y109948D01*
X155543D01*
Y109695D01*
X155297D01*
Y109948D01*
X154783D01*
Y109371D01*
X154720D01*
Y109307D01*
X154143D01*
Y108794D01*
X154396D01*
Y105275D01*
X151676Y102555D01*
X151606Y102450D01*
X151581Y102326D01*
Y101608D01*
X151328D01*
Y101035D01*
X147708D01*
X144783Y103960D01*
X144813Y104012D01*
X144880Y104264D01*
Y104330D01*
X143891D01*
Y104394D01*
X143827D01*
Y105383D01*
X143761D01*
X143509Y105316D01*
X143283Y105186D01*
X143099Y105002D01*
X143072Y104954D01*
X142945Y104988D01*
Y108908D01*
X144357Y110320D01*
X145303D01*
Y111724D01*
X143899D01*
Y110778D01*
X142554Y109433D01*
X142437Y109481D01*
Y110750D01*
X144357Y112670D01*
X145303D01*
Y114074D01*
X144855D01*
Y114295D01*
X144830Y114419D01*
X144760Y114524D01*
X143580Y115704D01*
Y119997D01*
X144357Y120774D01*
X144845D01*
X146537Y119083D01*
Y118189D01*
X146561Y118065D01*
X146631Y117960D01*
X147599Y116992D01*
X147704Y116922D01*
X147828Y116897D01*
X147993D01*
Y116655D01*
X147993Y116644D01*
Y116528D01*
X147993Y116517D01*
Y116371D01*
X147866Y116319D01*
X145303Y118882D01*
Y119828D01*
X143899D01*
Y118424D01*
X144845D01*
X147547Y115722D01*
X147652Y115652D01*
X147776Y115627D01*
X147993D01*
Y115385D01*
X147993Y115374D01*
Y115258D01*
X147993Y115247D01*
Y114115D01*
X147993Y114104D01*
Y113988D01*
X147993Y113977D01*
Y112845D01*
X147993Y112834D01*
Y112718D01*
X147993Y112707D01*
Y111575D01*
X147993Y111564D01*
Y111448D01*
X147993Y111437D01*
Y110305D01*
X147993Y110294D01*
Y110178D01*
X147993Y110167D01*
Y109035D01*
X147993Y109024D01*
Y108908D01*
X147993Y108897D01*
Y107765D01*
X147993Y107754D01*
Y107638D01*
X147993Y107627D01*
Y106495D01*
X147993Y106484D01*
Y106368D01*
X147993Y106357D01*
Y105225D01*
X147993Y105214D01*
Y105098D01*
X147993Y105087D01*
Y103955D01*
X147993Y103944D01*
Y103828D01*
X147993Y103817D01*
Y102685D01*
X147993Y102674D01*
Y102558D01*
X147993Y102547D01*
Y101404D01*
X149747D01*
Y102547D01*
X149747Y102558D01*
Y102674D01*
X149747Y102685D01*
Y103817D01*
X149747Y103828D01*
Y103944D01*
X149747Y103955D01*
Y105087D01*
X149747Y105098D01*
Y105214D01*
X149747Y105225D01*
Y106357D01*
X149747Y106368D01*
Y106484D01*
X149747Y106495D01*
Y107627D01*
X149747Y107638D01*
Y107754D01*
X149747Y107765D01*
Y108897D01*
X149747Y108908D01*
Y109024D01*
X149747Y109035D01*
Y110167D01*
X149747Y110178D01*
Y110294D01*
X149747Y110305D01*
Y110455D01*
X149872Y110509D01*
X150029Y110444D01*
X150199D01*
X150356Y110509D01*
X150476Y110629D01*
X150541Y110786D01*
Y110956D01*
X150476Y111113D01*
X150356Y111233D01*
X150199Y111298D01*
X150029D01*
X149872Y111233D01*
X149747Y111287D01*
Y111437D01*
X149747Y111448D01*
Y111564D01*
X149747Y111575D01*
Y111817D01*
X150361D01*
X151441Y110737D01*
Y104674D01*
X151403Y104636D01*
X151338Y104479D01*
Y104309D01*
X151403Y104152D01*
X151523Y104032D01*
X151680Y103967D01*
X151850D01*
X152007Y104032D01*
X152127Y104152D01*
X152192Y104309D01*
Y104479D01*
X152127Y104636D01*
X152089Y104674D01*
Y110871D01*
X152064Y110995D01*
X151994Y111100D01*
X150724Y112370D01*
X150619Y112440D01*
X150495Y112465D01*
X149747D01*
Y112707D01*
X149747Y112718D01*
Y112834D01*
X149747Y112845D01*
Y113977D01*
X149747Y113988D01*
Y114104D01*
X149747Y114115D01*
Y115247D01*
X149747Y115258D01*
Y115374D01*
X149747Y115385D01*
Y116517D01*
X149747Y116528D01*
Y116644D01*
X149747Y116655D01*
Y117798D01*
X149747D01*
Y117914D01*
X149747D01*
Y118068D01*
X149874Y118121D01*
X154396Y113599D01*
Y112748D01*
X154143D01*
Y112235D01*
X154720D01*
Y112108D01*
X154143D01*
Y111594D01*
X154396D01*
Y111348D01*
X154143D01*
Y110835D01*
X154720D01*
Y110771D01*
X154783D01*
Y110194D01*
X155297D01*
Y110447D01*
X155543D01*
Y110194D01*
X156056D01*
Y110771D01*
Y111348D01*
X155543D01*
Y111095D01*
X155297D01*
Y111348D01*
X155044D01*
Y111594D01*
X155297D01*
Y111847D01*
X155543D01*
Y111594D01*
X156056D01*
Y112171D01*
Y112748D01*
X155543D01*
Y112495D01*
X155297D01*
Y112748D01*
X155044D01*
Y113733D01*
X155019Y113856D01*
X154949Y113962D01*
X150191Y118720D01*
X150085Y118790D01*
X149962Y118815D01*
X149747D01*
Y119068D01*
X148934D01*
Y118491D01*
X148870D01*
Y118427D01*
X147993D01*
Y117914D01*
X147993D01*
Y117798D01*
X147970Y117697D01*
X147851Y117655D01*
X147184Y118323D01*
Y119217D01*
X147159Y119341D01*
X147089Y119446D01*
X145303Y121232D01*
Y122178D01*
X143899D01*
Y121232D01*
X143027Y120360D01*
X142957Y120255D01*
X142932Y120131D01*
Y115570D01*
X142957Y115446D01*
X143027Y115341D01*
X144168Y114201D01*
X144115Y114074D01*
X143899D01*
Y113127D01*
X141884Y111113D01*
X141814Y111008D01*
X141789Y110884D01*
Y100127D01*
X141814Y100003D01*
X141884Y99898D01*
X146387Y95395D01*
Y82550D01*
X146411Y82426D01*
X146482Y82321D01*
X148234Y80568D01*
X148339Y80498D01*
X148463Y80474D01*
X162458D01*
X162582Y80498D01*
X162687Y80568D01*
X163424Y81305D01*
X163494Y81410D01*
X163519Y81534D01*
Y87122D01*
X163673Y87276D01*
X163800Y87224D01*
Y87168D01*
X163853Y86970D01*
X163955Y86793D01*
X164100Y86648D01*
X164277Y86546D01*
X164475Y86493D01*
X164514D01*
Y87270D01*
Y88051D01*
X164427Y88128D01*
X164408Y88160D01*
Y91059D01*
X164383Y91183D01*
X164313Y91288D01*
X162954Y92646D01*
X163759Y93451D01*
X163974D01*
Y93168D01*
X165260D01*
X165816Y92612D01*
Y92498D01*
X165881Y92341D01*
X166001Y92221D01*
X166158Y92156D01*
X166328D01*
X166485Y92221D01*
X166605Y92341D01*
X166670Y92498D01*
Y92668D01*
X166605Y92825D01*
X166485Y92945D01*
X166338Y93006D01*
X165718Y93626D01*
Y94382D01*
X163974D01*
Y94099D01*
X163625D01*
X163501Y94074D01*
X163396Y94004D01*
X162299Y92907D01*
X159494D01*
X158445Y93955D01*
X158340Y94025D01*
X158217Y94050D01*
X156912D01*
Y94121D01*
X156897Y94198D01*
X156853Y94263D01*
X156788Y94307D01*
X156711Y94322D01*
X155541D01*
X155464Y94307D01*
X155399Y94263D01*
X155355Y94198D01*
X155340Y94121D01*
Y93331D01*
X155355Y93254D01*
X155399Y93189D01*
X155464Y93145D01*
X155541Y93130D01*
X156711D01*
X156788Y93145D01*
X156853Y93189D01*
X156897Y93254D01*
X156912Y93331D01*
Y93402D01*
X158083D01*
X159131Y92354D01*
X159236Y92284D01*
X159360Y92259D01*
X162426D01*
X163760Y90925D01*
Y88279D01*
X162966Y87485D01*
X162958Y87473D01*
X162821Y87496D01*
X162801Y87570D01*
X162699Y87747D01*
X162554Y87892D01*
X162377Y87994D01*
X162179Y88047D01*
X161975D01*
X161777Y87994D01*
X161600Y87892D01*
X161455Y87747D01*
X161353Y87570D01*
X161300Y87372D01*
Y87168D01*
X161353Y86970D01*
X161455Y86793D01*
X161600Y86648D01*
X161777Y86546D01*
X161975Y86493D01*
X162179D01*
X162377Y86546D01*
X162554Y86648D01*
X162699Y86793D01*
X162744Y86872D01*
X162871Y86838D01*
Y82302D01*
X162744Y82268D01*
X162699Y82347D01*
X162554Y82492D01*
X162377Y82594D01*
X162179Y82647D01*
X161975D01*
X161804Y82601D01*
X155010Y89395D01*
Y94735D01*
X155695Y95420D01*
X156711D01*
X156788Y95435D01*
X156853Y95479D01*
X156897Y95544D01*
X156912Y95621D01*
Y95692D01*
X158210D01*
X158676Y95226D01*
X158781Y95156D01*
X158905Y95131D01*
X160291D01*
Y94848D01*
X162035D01*
Y96062D01*
X160291D01*
Y95779D01*
X159039D01*
X158572Y96245D01*
X158467Y96315D01*
X158344Y96340D01*
X156912D01*
Y96411D01*
X156897Y96488D01*
X156853Y96553D01*
X156788Y96597D01*
X156711Y96612D01*
X155541D01*
X155464Y96597D01*
X155399Y96553D01*
X155355Y96488D01*
X155340Y96411D01*
Y95981D01*
X154457Y95098D01*
X154387Y94993D01*
X154362Y94869D01*
Y89261D01*
X154387Y89137D01*
X154457Y89032D01*
X161346Y82143D01*
X161300Y81972D01*
Y81767D01*
X161353Y81570D01*
X161455Y81393D01*
X161600Y81248D01*
X161600Y81248D01*
X161566Y81121D01*
X160088D01*
X160054Y81248D01*
X160054Y81248D01*
X160199Y81393D01*
X160301Y81570D01*
X160354Y81767D01*
Y81972D01*
X160301Y82170D01*
X160199Y82347D01*
X160054Y82492D01*
X159877Y82594D01*
X159679Y82647D01*
X159475D01*
X159277Y82594D01*
X159100Y82492D01*
X158955Y82347D01*
X158853Y82170D01*
X158800Y81972D01*
Y81767D01*
X158853Y81570D01*
X158955Y81393D01*
X159100Y81248D01*
X159100Y81248D01*
X159066Y81121D01*
X148597D01*
X147034Y82684D01*
Y95529D01*
X147009Y95653D01*
X146939Y95758D01*
X142437Y100261D01*
Y102685D01*
X142554Y102733D01*
X142902Y102386D01*
Y100865D01*
X144423D01*
X146202Y99085D01*
X146307Y99015D01*
X146431Y98990D01*
X163703D01*
X163827Y99015D01*
X163932Y99085D01*
X166251Y101404D01*
X167247D01*
Y102547D01*
X167247Y102558D01*
Y102674D01*
X167247Y102685D01*
Y103817D01*
X167247Y103828D01*
Y103944D01*
X167247Y103955D01*
Y105087D01*
X167247Y105098D01*
Y105214D01*
X167247Y105225D01*
Y106357D01*
X167247Y106368D01*
Y106484D01*
X167247Y106495D01*
Y107627D01*
X167247Y107638D01*
Y107754D01*
X167247Y107765D01*
Y108897D01*
X167247Y108908D01*
Y109024D01*
X167247Y109035D01*
Y110167D01*
X167247Y110178D01*
Y110294D01*
X167247Y110305D01*
Y111437D01*
X167247Y111448D01*
Y111564D01*
X167247Y111575D01*
Y112707D01*
X167247Y112718D01*
Y112834D01*
X167247Y112845D01*
Y113087D01*
X167506D01*
X168307Y112286D01*
Y103633D01*
X168269Y103594D01*
X168204Y103438D01*
Y103268D01*
X168269Y103111D01*
X168389Y102991D01*
X168546Y102926D01*
X168716D01*
X168872Y102991D01*
X168993Y103111D01*
X169058Y103268D01*
Y103438D01*
X168993Y103594D01*
X168954Y103633D01*
Y110972D01*
X169081Y110984D01*
X169094Y110923D01*
X169164Y110818D01*
X171526Y108455D01*
X171518Y108441D01*
X171458Y108217D01*
Y108164D01*
X172275D01*
Y108982D01*
X172223D01*
X171999Y108921D01*
X171984Y108913D01*
X169716Y111181D01*
Y116840D01*
X169692Y116964D01*
X169622Y117069D01*
X167971Y118720D01*
X167865Y118790D01*
X167742Y118815D01*
X167247D01*
Y119068D01*
X167343Y119143D01*
X171514D01*
X171518Y119127D01*
X171634Y118926D01*
X171798Y118762D01*
X171999Y118646D01*
X172223Y118586D01*
X172455D01*
X172679Y118646D01*
X172880Y118762D01*
X173044Y118926D01*
X173160Y119127D01*
X173220Y119351D01*
Y119583D01*
X173160Y119807D01*
X173044Y120008D01*
X172880Y120172D01*
X172679Y120288D01*
X172455Y120348D01*
X172223D01*
X171999Y120288D01*
X171798Y120172D01*
X171634Y120008D01*
X171518Y119807D01*
X171514Y119791D01*
X167074D01*
X167025Y119908D01*
X167132Y120015D01*
Y121643D01*
X171514D01*
X171518Y121627D01*
X171634Y121426D01*
X171798Y121262D01*
X171999Y121146D01*
X172223Y121086D01*
X172275D01*
Y121967D01*
Y122848D01*
X172223D01*
X171999Y122788D01*
X171798Y122672D01*
X171634Y122508D01*
X171518Y122307D01*
X171514Y122291D01*
X167132D01*
Y125095D01*
X168833Y126796D01*
X175243D01*
X175387Y126771D01*
D02*
G37*
G36*
X169069Y116706D02*
Y112495D01*
X168942Y112483D01*
X168930Y112544D01*
X168859Y112649D01*
X167869Y113640D01*
X167764Y113710D01*
X167640Y113735D01*
X167247D01*
Y113977D01*
X167247Y113988D01*
Y114104D01*
X167247Y114115D01*
Y114357D01*
X167322D01*
X167446Y114382D01*
X167551Y114452D01*
X167945Y114846D01*
X168015Y114951D01*
X168040Y115075D01*
Y116382D01*
X168078Y116420D01*
X168143Y116577D01*
Y116747D01*
X168078Y116904D01*
X167958Y117024D01*
X167801Y117089D01*
X167631D01*
X167474Y117024D01*
X167374Y116924D01*
X167280Y116944D01*
X167247Y116963D01*
Y117787D01*
X167247Y117798D01*
Y117914D01*
X167247Y117925D01*
Y118167D01*
X167608D01*
X169069Y116706D01*
D02*
G37*
G36*
X147345Y100482D02*
X147450Y100412D01*
X147574Y100387D01*
X151328D01*
Y99854D01*
X151842D01*
Y100731D01*
X151969D01*
Y99854D01*
X152471D01*
X152482Y99854D01*
X152598D01*
X152609Y99854D01*
X153741D01*
X153752Y99854D01*
X153868D01*
X153879Y99854D01*
X155011D01*
X155022Y99854D01*
X155138D01*
X155149Y99854D01*
X156281D01*
X156292Y99854D01*
X156408D01*
X156419Y99854D01*
X157551D01*
X157562Y99854D01*
X157678D01*
X157689Y99854D01*
X158821D01*
X158832Y99854D01*
X158948D01*
X158959Y99854D01*
X160091D01*
X160102Y99854D01*
X160218D01*
X160229Y99854D01*
X161361D01*
X161372Y99854D01*
X161488D01*
X161499Y99854D01*
X162631D01*
X162642Y99854D01*
X162758D01*
X162769Y99854D01*
X163619D01*
X163668Y99737D01*
X163569Y99638D01*
X146565D01*
X144880Y101322D01*
Y102767D01*
X145008Y102820D01*
X147345Y100482D01*
D02*
G37*
%LPC*%
G36*
X172455Y122848D02*
X172402D01*
Y122030D01*
X173220D01*
Y122083D01*
X173160Y122307D01*
X173044Y122508D01*
X172880Y122672D01*
X172679Y122788D01*
X172455Y122848D01*
D02*
G37*
G36*
X148807Y119068D02*
X147993D01*
Y118554D01*
X148807D01*
Y119068D01*
D02*
G37*
G36*
X173220Y117848D02*
X171458D01*
Y116086D01*
X173220D01*
Y117848D01*
D02*
G37*
G36*
X156697Y111348D02*
X156183D01*
Y110835D01*
X156697D01*
Y111348D01*
D02*
G37*
G36*
Y110708D02*
X156183D01*
Y110194D01*
X156697D01*
Y110708D01*
D02*
G37*
G36*
X154656D02*
X154143D01*
Y110194D01*
X154656D01*
Y110708D01*
D02*
G37*
G36*
X158097D02*
X156943D01*
Y110194D01*
X157196D01*
Y109948D01*
X156943D01*
Y109695D01*
X156697D01*
Y109948D01*
X156183D01*
Y109371D01*
Y108794D01*
X156697D01*
Y109047D01*
X156943D01*
Y108794D01*
X157456D01*
Y109371D01*
X157520D01*
Y109434D01*
X158097D01*
Y109948D01*
X157844D01*
Y110194D01*
X158097D01*
Y110708D01*
D02*
G37*
G36*
X154656Y109948D02*
X154143D01*
Y109434D01*
X154656D01*
Y109948D01*
D02*
G37*
G36*
X173220Y121903D02*
X172402D01*
Y121086D01*
X172455D01*
X172679Y121146D01*
X172694Y121154D01*
X173539Y120309D01*
Y109759D01*
X172694Y108913D01*
X172679Y108921D01*
X172455Y108982D01*
X172402D01*
Y108164D01*
X173220D01*
Y108217D01*
X173160Y108441D01*
X173152Y108455D01*
X174092Y109396D01*
X174162Y109501D01*
X174187Y109625D01*
Y120443D01*
X174162Y120567D01*
X174092Y120672D01*
X173152Y121612D01*
X173160Y121627D01*
X173220Y121851D01*
Y121903D01*
D02*
G37*
G36*
X158097Y109307D02*
X157583D01*
Y108794D01*
X158097D01*
Y109307D01*
D02*
G37*
G36*
X173220Y108037D02*
X172402D01*
Y107220D01*
X172455D01*
X172679Y107280D01*
X172880Y107396D01*
X173044Y107560D01*
X173160Y107760D01*
X173220Y107985D01*
Y108037D01*
D02*
G37*
G36*
X172275D02*
X171458D01*
Y107985D01*
X171518Y107760D01*
X171526Y107746D01*
X171018Y107237D01*
X170948Y107132D01*
X170923Y107008D01*
Y97924D01*
X168778Y95779D01*
X165718D01*
Y96062D01*
X164910D01*
Y95455D01*
Y94848D01*
X165718D01*
Y95032D01*
X165808Y95121D01*
X171047Y95068D01*
X171526Y94589D01*
X171518Y94574D01*
X171458Y94350D01*
Y94298D01*
X172275D01*
Y95115D01*
X172223D01*
X171999Y95055D01*
X171984Y95047D01*
X171411Y95619D01*
X171360Y95654D01*
X171309Y95688D01*
X171308Y95689D01*
X171306Y95690D01*
X171246Y95702D01*
X171186Y95714D01*
X169808Y95728D01*
X169760Y95846D01*
X171476Y97561D01*
X171546Y97666D01*
X171571Y97790D01*
Y102219D01*
X172762D01*
X173107Y101874D01*
Y94891D01*
X172980Y94838D01*
X172880Y94939D01*
X172679Y95055D01*
X172455Y95115D01*
X172402D01*
Y94234D01*
Y93353D01*
X172455D01*
X172679Y93413D01*
X172880Y93529D01*
X172980Y93630D01*
X173107Y93577D01*
Y92391D01*
X172980Y92338D01*
X172880Y92439D01*
X172679Y92555D01*
X172455Y92615D01*
X172223D01*
X171999Y92555D01*
X171798Y92439D01*
X171634Y92275D01*
X171518Y92074D01*
X171458Y91850D01*
Y91618D01*
X171518Y91394D01*
X171634Y91193D01*
X171798Y91029D01*
X171999Y90913D01*
X172223Y90853D01*
X172455D01*
X172679Y90913D01*
X172880Y91029D01*
X172980Y91130D01*
X173107Y91077D01*
Y90460D01*
X172762Y90115D01*
X171458D01*
Y88353D01*
X172015D01*
Y84836D01*
X172040Y84712D01*
X172110Y84607D01*
X172971Y83746D01*
X172941Y83694D01*
X172874Y83442D01*
Y83182D01*
X172941Y82930D01*
X173071Y82704D01*
X173255Y82520D01*
X173481Y82390D01*
X173733Y82323D01*
X173993D01*
X174245Y82390D01*
X174471Y82520D01*
X174655Y82704D01*
X174785Y82930D01*
X174852Y83182D01*
Y83442D01*
X174785Y83694D01*
X174655Y83920D01*
X174471Y84104D01*
X174245Y84234D01*
X173993Y84301D01*
X173733D01*
X173481Y84234D01*
X173429Y84204D01*
X172663Y84970D01*
Y88353D01*
X173220D01*
Y89657D01*
X173660Y90097D01*
X173730Y90202D01*
X173755Y90326D01*
Y102008D01*
X173730Y102132D01*
X173660Y102237D01*
X173220Y102677D01*
Y103981D01*
X171571D01*
Y104943D01*
X171698Y104996D01*
X171798Y104896D01*
X171999Y104780D01*
X172223Y104719D01*
X172455D01*
X172679Y104780D01*
X172880Y104896D01*
X173044Y105060D01*
X173160Y105260D01*
X173220Y105485D01*
Y105716D01*
X173160Y105941D01*
X173044Y106141D01*
X172880Y106305D01*
X172679Y106421D01*
X172455Y106481D01*
X172223D01*
X171999Y106421D01*
X171798Y106305D01*
X171698Y106205D01*
X171571Y106258D01*
Y106874D01*
X171984Y107288D01*
X171999Y107280D01*
X172223Y107220D01*
X172275D01*
Y108037D01*
D02*
G37*
G36*
X144021Y105383D02*
X143954D01*
Y104457D01*
X144880D01*
Y104524D01*
X144813Y104776D01*
X144683Y105002D01*
X144499Y105186D01*
X144273Y105316D01*
X144021Y105383D01*
D02*
G37*
G36*
X164783Y96062D02*
X163974D01*
Y95779D01*
X163834D01*
X163710Y95754D01*
X163605Y95684D01*
X162152Y94232D01*
X162035Y94280D01*
Y94382D01*
X161227D01*
Y93775D01*
Y93168D01*
X162035D01*
Y93451D01*
X162154D01*
X162277Y93476D01*
X162383Y93546D01*
X163847Y95011D01*
X163974Y94958D01*
Y94848D01*
X164783D01*
Y95455D01*
Y96062D01*
D02*
G37*
G36*
X161100Y94382D02*
X160291D01*
Y93839D01*
X161100D01*
Y94382D01*
D02*
G37*
G36*
X172275Y94171D02*
X171458D01*
Y94118D01*
X171518Y93894D01*
X171634Y93693D01*
X171798Y93529D01*
X171999Y93413D01*
X172223Y93353D01*
X172275D01*
Y94171D01*
D02*
G37*
G36*
X161100Y93712D02*
X160291D01*
Y93168D01*
X161100D01*
Y93712D01*
D02*
G37*
G36*
X149993Y95477D02*
X148879D01*
X148791Y95460D01*
X148717Y95410D01*
X148667Y95336D01*
X148650Y95248D01*
Y92204D01*
X148667Y92116D01*
X148717Y92042D01*
X148791Y91992D01*
X148879Y91975D01*
X149993D01*
X150081Y91992D01*
X150155Y92042D01*
X150205Y92116D01*
X150222Y92204D01*
Y95248D01*
X150205Y95336D01*
X150155Y95410D01*
X150081Y95460D01*
X149993Y95477D01*
D02*
G37*
G36*
X156062Y92032D02*
X155541D01*
X155464Y92017D01*
X155399Y91973D01*
X155355Y91908D01*
X155340Y91831D01*
Y91499D01*
X156062D01*
Y92032D01*
D02*
G37*
G36*
X156711D02*
X156189D01*
Y91436D01*
Y90840D01*
X156711D01*
X156788Y90855D01*
X156853Y90899D01*
X156897Y90964D01*
X156912Y91041D01*
Y91112D01*
X160951D01*
X161071Y90993D01*
X161176Y90922D01*
X161300Y90898D01*
X161424Y90922D01*
X161529Y90993D01*
X161599Y91098D01*
X161624Y91221D01*
X161599Y91345D01*
X161529Y91450D01*
X161314Y91665D01*
X161209Y91735D01*
X161086Y91760D01*
X156912D01*
Y91831D01*
X156897Y91908D01*
X156853Y91973D01*
X156788Y92017D01*
X156711Y92032D01*
D02*
G37*
G36*
X156062Y91372D02*
X155340D01*
Y91041D01*
X155355Y90964D01*
X155399Y90899D01*
X155464Y90855D01*
X155541Y90840D01*
X156062D01*
Y91372D01*
D02*
G37*
G36*
X164679Y88047D02*
X164641D01*
Y87333D01*
X165354D01*
Y87372D01*
X165301Y87570D01*
X165199Y87747D01*
X165054Y87892D01*
X164877Y87994D01*
X164679Y88047D01*
D02*
G37*
G36*
X165354Y87206D02*
X164641D01*
Y86493D01*
X164679D01*
X164877Y86546D01*
X165054Y86648D01*
X165199Y86793D01*
X165301Y86970D01*
X165354Y87168D01*
Y87206D01*
D02*
G37*
G36*
X159679Y88047D02*
X159475D01*
X159277Y87994D01*
X159100Y87892D01*
X158955Y87747D01*
X158853Y87570D01*
X158800Y87372D01*
Y87168D01*
X158853Y86970D01*
X158955Y86793D01*
X159100Y86648D01*
X159277Y86546D01*
X159475Y86493D01*
X159679D01*
X159877Y86546D01*
X160054Y86648D01*
X160199Y86793D01*
X160301Y86970D01*
X160354Y87168D01*
Y87372D01*
X160301Y87570D01*
X160199Y87747D01*
X160054Y87892D01*
X159877Y87994D01*
X159679Y88047D01*
D02*
G37*
G36*
X170945Y84301D02*
X170685D01*
X170433Y84234D01*
X170207Y84104D01*
X170023Y83920D01*
X169893Y83694D01*
X169826Y83442D01*
Y83182D01*
X169893Y82930D01*
X170023Y82704D01*
X170207Y82520D01*
X170433Y82390D01*
X170685Y82323D01*
X170945D01*
X171197Y82390D01*
X171423Y82520D01*
X171607Y82704D01*
X171737Y82930D01*
X171805Y83182D01*
Y83442D01*
X171737Y83694D01*
X171607Y83920D01*
X171423Y84104D01*
X171197Y84234D01*
X170945Y84301D01*
D02*
G37*
G36*
X152099Y83845D02*
X151859D01*
X151626Y83783D01*
X151418Y83663D01*
X151247Y83493D01*
X151127Y83284D01*
X151065Y83051D01*
Y82811D01*
X151127Y82578D01*
X151247Y82369D01*
X151418Y82199D01*
X151626Y82079D01*
X151859Y82017D01*
X152099D01*
X152332Y82079D01*
X152541Y82199D01*
X152711Y82369D01*
X152831Y82578D01*
X152894Y82811D01*
Y83051D01*
X152831Y83284D01*
X152711Y83493D01*
X152541Y83663D01*
X152332Y83783D01*
X152099Y83845D01*
D02*
G37*
G36*
X150393D02*
X148564D01*
Y82017D01*
X150393D01*
Y83845D01*
D02*
G37*
G36*
X164679Y82647D02*
X164475D01*
X164277Y82594D01*
X164100Y82492D01*
X163955Y82347D01*
X163853Y82170D01*
X163800Y81972D01*
Y81767D01*
X163853Y81570D01*
X163955Y81393D01*
X164100Y81248D01*
X164277Y81146D01*
X164475Y81093D01*
X164679D01*
X164877Y81146D01*
X165054Y81248D01*
X165199Y81393D01*
X165301Y81570D01*
X165354Y81767D01*
Y81972D01*
X165301Y82170D01*
X165199Y82347D01*
X165054Y82492D01*
X164877Y82594D01*
X164679Y82647D01*
D02*
G37*
G36*
X174852Y81761D02*
X173926D01*
Y80836D01*
X174852D01*
Y81761D01*
D02*
G37*
G36*
X173799D02*
X172874D01*
Y80836D01*
X173799D01*
Y81761D01*
D02*
G37*
G36*
X174852Y80709D02*
X173926D01*
Y79783D01*
X174852D01*
Y80709D01*
D02*
G37*
G36*
X173799D02*
X172874D01*
Y79783D01*
X173799D01*
Y80709D01*
D02*
G37*
G36*
X171805Y81761D02*
X169826D01*
Y79783D01*
X171805D01*
Y81761D01*
D02*
G37*
%LPD*%
D14*
X164846Y93775D02*
D03*
Y95455D02*
D03*
X161163Y93775D02*
D03*
Y95455D02*
D03*
D15*
X148870Y118491D02*
D03*
Y117221D02*
D03*
Y115951D02*
D03*
Y114681D02*
D03*
Y113411D02*
D03*
Y112141D02*
D03*
Y110871D02*
D03*
Y109601D02*
D03*
Y108331D02*
D03*
Y107061D02*
D03*
Y105791D02*
D03*
Y104521D02*
D03*
Y103251D02*
D03*
Y101981D02*
D03*
X166370D02*
D03*
Y103251D02*
D03*
Y104521D02*
D03*
Y105791D02*
D03*
Y107061D02*
D03*
Y108331D02*
D03*
Y109601D02*
D03*
Y110871D02*
D03*
Y112141D02*
D03*
Y113411D02*
D03*
Y114681D02*
D03*
Y115951D02*
D03*
Y117221D02*
D03*
Y118491D02*
D03*
D16*
X151905Y100731D02*
D03*
X153175D02*
D03*
X154445D02*
D03*
X155715D02*
D03*
X156985D02*
D03*
X158255D02*
D03*
X159525D02*
D03*
X160795D02*
D03*
X162065D02*
D03*
X163335D02*
D03*
D17*
X154720Y112171D02*
D03*
Y110771D02*
D03*
Y109371D02*
D03*
X156120D02*
D03*
X157520D02*
D03*
Y110771D02*
D03*
Y112171D02*
D03*
X156120D02*
D03*
Y110771D02*
D03*
D18*
X156126Y91436D02*
D03*
Y93726D02*
D03*
Y96016D02*
D03*
D19*
X149436Y93726D02*
D03*
D20*
X144601Y111022D02*
D03*
Y113372D02*
D03*
Y121476D02*
D03*
Y119126D02*
D03*
D36*
X147574Y100711D02*
X151905D01*
X154686Y89261D02*
Y94869D01*
Y89261D02*
X162077Y81870D01*
X163195Y87256D02*
X164084Y88145D01*
X163195Y81534D02*
Y87256D01*
X162458Y80797D02*
X163195Y81534D01*
X165111Y93775D02*
X166273Y92613D01*
X164084Y88145D02*
Y91059D01*
X148463Y80797D02*
X162458D01*
X162497Y92646D02*
X163625Y93775D01*
X162433Y92583D02*
X162497Y92646D01*
X171247Y107008D02*
X172339Y108101D01*
X171247Y97790D02*
Y107008D01*
X168912Y95455D02*
X171247Y97790D01*
X164846Y95455D02*
X168912D01*
X171182Y95391D02*
X172339Y94234D01*
X164846Y95455D02*
X171182Y95391D01*
X154686Y94869D02*
X155833Y96016D01*
X156126D01*
X147776Y115951D02*
X148870D01*
X144601Y119126D02*
X147776Y115951D01*
X151765Y104394D02*
Y110871D01*
X150495Y112141D02*
X151765Y110871D01*
X148870Y112141D02*
X150495D01*
X148870Y110871D02*
X150114D01*
X143891Y101854D02*
X146431Y99314D01*
X163703D01*
X166370Y101981D01*
X142621Y103124D02*
X143891Y101854D01*
X142621Y103124D02*
Y109042D01*
X144601Y111022D01*
X165417Y107061D02*
X166370D01*
X165100Y107379D02*
X165417Y107061D01*
X165100Y107379D02*
Y119253D01*
X165314Y119467D01*
X172339D01*
X144531Y113442D02*
X144601Y113372D01*
X144531Y113442D02*
Y114295D01*
X143256Y115570D02*
X144531Y114295D01*
X143256Y115570D02*
Y120131D01*
X144601Y121476D01*
X142113Y110884D02*
X144601Y113372D01*
X142113Y100127D02*
Y110884D01*
Y100127D02*
X146710Y95529D01*
Y82550D02*
Y95529D01*
Y82550D02*
X148463Y80797D01*
X162497Y92646D02*
X164084Y91059D01*
X159360Y92583D02*
X162433D01*
X163625Y93775D02*
X164846D01*
X158217Y93726D02*
X159360Y92583D01*
X156126Y93726D02*
X158217D01*
X147828Y117221D02*
X148870D01*
X146860Y118189D02*
X147828Y117221D01*
X146860Y118189D02*
Y119217D01*
X144601Y121476D02*
X146860Y119217D01*
X172339Y84836D02*
Y89234D01*
Y84836D02*
X173863Y83312D01*
X168631Y103353D02*
Y112420D01*
X167640Y113411D02*
X168631Y112420D01*
X166370Y113411D02*
X167640D01*
X167716Y115075D02*
Y116662D01*
X167322Y114681D02*
X167716Y115075D01*
X166370Y114681D02*
X167322D01*
X151905Y100711D02*
Y100731D01*
X143891Y104394D02*
X147574Y100711D01*
X151905Y100731D02*
Y102326D01*
X154720Y105141D01*
Y109371D01*
X156120D01*
X157520D01*
Y110771D01*
Y112171D01*
X156120D02*
X157520D01*
X154720D02*
X156120D01*
X154720Y110771D02*
Y112171D01*
X157520D02*
Y114010D01*
X165477Y121967D01*
X172339D01*
X154720Y110771D02*
X156120D01*
X154720Y112171D02*
Y113733D01*
X149962Y118491D02*
X154720Y113733D01*
X148870Y118491D02*
X149962D01*
X172339Y121967D02*
X173863Y120443D01*
Y109625D02*
Y120443D01*
X172339Y108101D02*
X173863Y109625D01*
X169393Y111047D02*
X172339Y108101D01*
X169393Y111047D02*
Y116840D01*
X167742Y118491D02*
X169393Y116840D01*
X166370Y118491D02*
X167742D01*
X163834Y95455D02*
X164846D01*
X162154Y93775D02*
X163834Y95455D01*
X161163Y93775D02*
X162154D01*
X156126Y91436D02*
X161086D01*
X161300Y91221D01*
X158905Y95455D02*
X161163D01*
X158344Y96016D02*
X158905Y95455D01*
X156126Y96016D02*
X158344D01*
X164846Y93775D02*
X165111D01*
X172339Y89234D02*
X173431Y90326D01*
Y102008D01*
X172339Y103100D02*
X173431Y102008D01*
D37*
X170815Y80772D02*
D03*
X173863D02*
D03*
X143891Y101854D02*
D03*
D38*
X170815Y83312D02*
D03*
X173863D02*
D03*
X143891Y104394D02*
D03*
D39*
X149479Y82931D02*
D03*
D40*
X151979D02*
D03*
D41*
X172339Y94234D02*
D03*
Y91734D02*
D03*
Y108101D02*
D03*
Y105601D02*
D03*
Y121967D02*
D03*
Y119467D02*
D03*
D42*
Y89234D02*
D03*
Y103100D02*
D03*
Y116967D02*
D03*
D43*
X159577Y81870D02*
D03*
X162077D02*
D03*
X164577D02*
D03*
X159577Y87270D02*
D03*
X162077D02*
D03*
X164577D02*
D03*
D44*
X166243Y92583D02*
D03*
X151765Y104394D02*
D03*
X150114Y110871D02*
D03*
X168631Y103353D02*
D03*
X167716Y116662D02*
D03*
X161300Y91221D02*
D03*
M02*
