M48
;Layer_Color=9474304
;FILE_FORMAT=4:3
METRIC,LZ
;TYPE=PLATED
T1F00S00C0.300
T2F00S00C0.800
T3F00S00C1.000
T4F00S00C1.050
T5F00S00C1.150
%
T01
X0151765Y0104394
X0150114Y0110871
X0167716Y0116662
X0168631Y0103353
X0166243Y0092583
X01613Y0091221
T02
X0159577Y008187
X0162077
X0164577
Y008727
X0162077
X0159577
T03
X0172339Y0089234
Y0091734
Y0094234
Y01031
Y0105601
Y0108101
Y0116967
Y0119467
Y0121967
T04
X0149479Y0082931
X0151979
T05
X0143891Y0101854
Y0104394
X0170815Y0083312
Y0080772
X0173863
Y0083312
M30
