G04*
G04 #@! TF.GenerationSoftware,Altium Limited,Altium Designer,22.1.2 (22)*
G04*
G04 Layer_Color=16711935*
%FSLAX43Y43*%
%MOMM*%
G71*
G04*
G04 #@! TF.SameCoordinates,789559D7-4389-4A6F-8FAE-C72B44BD11BC*
G04*
G04*
G04 #@! TF.FilePolarity,Negative*
G04*
G01*
G75*
%ADD28R,1.875X1.875*%
%ADD29C,1.875*%
%ADD30R,1.725X1.725*%
%ADD31C,1.725*%
%ADD32C,1.658*%
%ADD33R,1.658X1.658*%
%ADD34C,1.450*%
%ADD35C,0.750*%
D28*
X170815Y80772D02*
D03*
X173863D02*
D03*
X143891Y101854D02*
D03*
D29*
X170815Y83312D02*
D03*
X173863D02*
D03*
X143891Y104394D02*
D03*
D30*
X149479Y82931D02*
D03*
D31*
X151979D02*
D03*
D32*
X172339Y94234D02*
D03*
Y91734D02*
D03*
Y108101D02*
D03*
Y105601D02*
D03*
Y121967D02*
D03*
Y119467D02*
D03*
D33*
Y89234D02*
D03*
Y103100D02*
D03*
Y116967D02*
D03*
D34*
X159577Y81870D02*
D03*
X162077D02*
D03*
X164577D02*
D03*
X159577Y87270D02*
D03*
X162077D02*
D03*
X164577D02*
D03*
D35*
X166243Y92583D02*
D03*
X151765Y104394D02*
D03*
X150114Y110871D02*
D03*
X168631Y103353D02*
D03*
X167716Y116662D02*
D03*
X161300Y91221D02*
D03*
M02*
